<svg width="324" height="323" viewBox="0 0 324 323" fill="none" xmlns="http://www.w3.org/2000/svg">
<path d="M97.147 323C43.495 323 0 279.617 0 226.101V96.9004C0 43.3846 43.4935 0 97.147 0H226.676C280.328 0 323.823 43.3832 323.822 96.9004V226.101C323.822 279.617 280.328 323.001 226.676 323H97.147Z" fill="#FDC7C7"/>
<g clip-path="url(#clip0_6_58)">
<g clip-path="url(#clip1_6_58)">
<path fill-rule="evenodd" clip-rule="evenodd" d="M160.208 111.127C160.183 110.465 160.17 109.802 160.17 109.139C160.168 107.991 160.203 106.843 160.283 105.698C160.345 104.816 160.433 103.937 160.554 103.063C160.646 102.404 160.755 101.748 160.888 101.098C160.989 100.594 161.103 100.093 161.233 99.5958C161.963 96.7942 163.183 94.0318 165.235 91.9363C165.529 91.6363 165.84 91.3509 166.165 91.0835C166.605 90.7214 167.072 90.392 167.561 90.1001C168.33 89.6435 169.15 89.2799 170.002 89.0108C170.931 88.7157 171.892 88.533 172.861 88.4433C173.3 88.4026 173.739 88.3846 174.179 88.3765C174.454 88.3748 174.452 88.3748 174.727 88.3781C175.302 88.3928 175.874 88.4254 176.445 88.4857C178.194 88.67 179.918 89.0614 181.598 89.5702C183.248 90.0692 184.861 90.6839 186.442 91.3705C187.538 91.8466 188.618 92.3571 189.683 92.8968C190.979 93.5556 192.251 94.2617 193.474 95.0494C194.85 95.9332 196.181 96.9214 197.317 98.1021C197.976 98.7854 198.571 99.5387 199.016 100.377C199.304 100.918 199.526 101.497 199.652 102.097C199.732 102.472 199.773 102.856 199.773 103.239C199.773 103.519 199.752 103.801 199.708 104.079C199.426 105.881 198.267 107.405 196.951 108.612C196.735 108.811 196.511 109.002 196.284 109.188C195.99 109.429 195.686 109.661 195.377 109.884C194.988 110.165 194.589 110.43 194.185 110.686C193.614 111.045 193.032 111.384 192.441 111.706C191.738 112.086 191.022 112.444 190.297 112.783C189.369 113.22 188.425 113.628 187.474 114.011C186.215 114.517 184.943 114.988 183.661 115.428C181.814 116.064 179.947 116.64 178.067 117.177C177.876 117.23 177.683 117.284 177.491 117.338C179.72 117.221 181.953 117.211 184.181 117.325C188.471 117.548 192.763 118.24 196.832 119.641C199.552 120.578 202.166 121.837 204.547 123.453C206.175 124.561 207.691 125.832 209.056 127.25C209.994 128.225 210.861 129.267 211.65 130.364C212.17 131.088 212.657 131.837 213.112 132.605C215.963 137.432 217.426 142.953 218.038 148.49C218.129 149.318 218.201 150.148 218.257 150.98C218.33 152.072 218.375 153.168 218.393 154.262C218.415 155.662 218.396 157.062 218.34 158.46C218.27 160.218 218.142 161.972 217.967 163.724C217.511 168.293 216.738 172.83 215.764 177.316C215.052 180.586 214.23 183.831 213.261 187.033C212.564 189.331 211.796 191.608 210.946 193.855C210.288 195.587 209.585 197.3 208.829 198.99C208.271 200.239 207.684 201.475 207.068 202.696C203.035 210.684 197.671 218.11 190.745 223.849C189.607 224.793 188.429 225.688 187.212 226.529C185.702 227.575 184.131 228.537 182.509 229.403C180.336 230.562 178.07 231.549 175.737 232.34C172.574 233.411 169.288 234.119 165.962 234.434C161.452 234.862 156.884 234.566 152.46 233.597C148.69 232.772 145.031 231.464 141.575 229.755C138.604 228.287 135.784 226.525 133.146 224.525C130.803 222.751 128.604 220.789 126.559 218.682C124.804 216.872 123.161 214.953 121.636 212.947C120.323 211.223 119.097 209.435 117.956 207.593C116.96 205.986 116.028 204.339 115.16 202.659C111.676 195.914 109.229 188.662 107.669 181.244C106.88 177.492 106.325 173.697 105.954 169.883C105.747 167.739 105.591 165.589 105.505 163.437C105.423 161.464 105.399 159.487 105.441 157.512C105.474 156.029 105.544 154.546 105.66 153.067C105.752 151.893 105.871 150.722 106.023 149.555C106.141 148.648 106.278 147.744 106.437 146.846C107.434 141.186 109.293 135.594 112.512 130.79C113.033 130.015 113.588 129.262 114.174 128.535C114.997 127.52 115.885 126.56 116.833 125.663C118.208 124.362 119.712 123.196 121.314 122.183C123.738 120.65 126.379 119.476 129.119 118.63C131.983 117.746 134.95 117.216 137.936 116.961C139.199 116.852 140.466 116.798 141.735 116.779C142.074 116.775 142.412 116.774 142.75 116.775C146.501 116.81 150.238 117.183 153.926 117.848C156.132 118.246 158.319 118.744 160.474 119.359C160.463 119.305 160.449 119.246 160.435 119.166C160.183 118.002 159.849 116.86 159.418 115.75C157.786 111.551 154.919 107.948 151.646 104.896C151.173 104.455 150.691 104.025 150.2 103.604C149.529 103.027 148.84 102.468 148.141 101.923C147.325 101.29 146.493 100.679 145.647 100.085C144.573 99.3333 143.48 98.6109 142.369 97.9129C140.895 96.9867 139.392 96.1044 137.87 95.2565C135.82 94.1133 133.732 93.0403 131.627 91.9999L131.517 91.9396C131.426 91.8776 131.399 91.8646 131.316 91.7896C131.192 91.677 131.089 91.5417 131.014 91.3917C130.956 91.2791 130.917 91.1585 130.893 91.0362C130.79 90.4899 131.04 89.9224 131.512 89.6289C131.695 89.5147 131.892 89.4593 132.102 89.4299C132.228 89.4234 132.228 89.4234 132.354 89.4299C132.465 89.4446 132.493 89.4446 132.601 89.4756C132.709 89.5049 132.734 89.5196 132.837 89.5653C133.319 89.8033 133.803 90.0431 134.285 90.2844C136.284 91.2987 138.269 92.3456 140.216 93.4562C141.65 94.2748 143.066 95.1244 144.456 96.0148C145.592 96.7421 146.71 97.4955 147.807 98.2815C148.675 98.906 149.532 99.5485 150.369 100.214C151.003 100.719 151.628 101.238 152.239 101.77C155.337 104.465 158.154 107.564 160.208 111.127ZM142.085 118.406C140.859 118.418 139.634 118.462 138.413 118.558C135.429 118.793 132.462 119.305 129.603 120.189C127 120.991 124.491 122.105 122.189 123.561C120.676 124.516 119.256 125.617 117.958 126.845C117.062 127.693 116.223 128.601 115.446 129.56C114.891 130.248 114.364 130.961 113.872 131.697C110.777 136.313 109.005 141.691 108.047 147.128C107.893 148.004 107.759 148.883 107.645 149.765C107.496 150.905 107.378 152.048 107.29 153.193C107.167 154.758 107.097 156.327 107.069 157.896C107.035 159.848 107.066 161.801 107.154 163.752C107.243 165.746 107.39 167.739 107.583 169.725C107.934 173.345 108.452 176.947 109.187 180.511C110.687 187.811 113.06 194.952 116.454 201.599C117.346 203.349 118.311 205.064 119.347 206.736C120.518 208.626 121.782 210.459 123.137 212.221C124.631 214.165 126.237 216.021 127.953 217.772C129.948 219.808 132.091 221.698 134.373 223.407C136.937 225.326 139.675 227.015 142.556 228.419C145.901 230.049 149.437 231.289 153.078 232.062C157.342 232.967 161.741 233.225 166.078 232.783C169.279 232.459 172.438 231.756 175.476 230.706C177.724 229.928 179.904 228.959 181.994 227.827C183.558 226.978 185.072 226.037 186.529 225.016C187.618 224.253 188.675 223.444 189.701 222.594C196.454 216.998 201.676 209.749 205.608 201.963C206.213 200.764 206.788 199.551 207.336 198.326C208.08 196.664 208.771 194.98 209.415 193.277C210.253 191.066 211.009 188.826 211.694 186.562C212.607 183.55 213.387 180.499 214.065 177.427C215.048 172.978 215.831 168.481 216.302 163.947C216.493 162.101 216.632 160.25 216.705 158.395C216.761 157.028 216.781 155.658 216.758 154.29C216.74 153.222 216.697 152.154 216.627 151.089C216.571 150.28 216.501 149.473 216.413 148.667C215.811 143.221 214.359 137.776 211.482 133.065C211.009 132.292 210.501 131.542 209.955 130.818C209.156 129.756 208.276 128.753 207.324 127.824C205.917 126.446 204.356 125.227 202.681 124.187C200.156 122.615 197.389 121.449 194.533 120.626C190.348 119.416 185.975 118.921 181.624 118.879C177.567 118.84 173.504 119.194 169.5 119.844C168.032 120.084 166.57 120.365 165.119 120.689C164.123 120.913 163.132 121.156 162.153 121.438L161.991 121.469C161.826 121.465 161.826 121.465 161.666 121.428C161.437 121.353 161.208 121.28 160.978 121.208C158.569 120.476 156.114 119.9 153.635 119.453C150.039 118.804 146.396 118.439 142.741 118.406C142.522 118.406 142.304 118.406 142.085 118.406ZM168.482 124.424C168.585 124.438 168.679 124.464 168.769 124.518C169.037 124.681 169.162 125.017 169.062 125.314C169.029 125.413 168.974 125.495 168.905 125.573C168.81 125.661 168.81 125.658 168.706 125.748C168.114 126.234 167.479 126.658 166.786 126.987C166.412 127.165 166.024 127.316 165.627 127.44C163.311 128.161 160.816 127.899 158.512 127.261C158.159 127.163 157.808 127.056 157.459 126.94C157 126.788 156.545 126.623 156.096 126.446C155.52 126.221 154.955 125.974 154.392 125.718L154.337 125.691C154.196 125.601 154.087 125.482 154.031 125.324C154.005 125.247 153.992 125.166 153.993 125.084C154.002 124.748 154.265 124.461 154.6 124.425C154.703 124.412 154.801 124.428 154.901 124.459C155.015 124.505 155.126 124.559 155.239 124.609C155.484 124.72 155.543 124.745 155.788 124.851C156.228 125.037 156.671 125.216 157.119 125.381C157.538 125.536 157.961 125.679 158.388 125.81C158.708 125.907 159.032 125.997 159.357 126.077C161.432 126.594 163.69 126.762 165.72 125.968C166.263 125.756 166.781 125.479 167.259 125.144C167.406 125.043 167.548 124.936 167.687 124.823C167.8 124.733 167.906 124.636 168.019 124.547L168.07 124.515C168.164 124.464 168.254 124.437 168.359 124.422C168.419 124.42 168.419 124.42 168.482 124.424ZM163.172 118.969C163.584 118.892 163.996 118.814 164.407 118.736C167.054 118.217 169.69 117.646 172.31 117.007C174.274 116.528 176.228 116.012 178.168 115.45C179.832 114.967 181.489 114.452 183.128 113.887C184.207 113.516 185.28 113.124 186.341 112.707C187.278 112.338 188.205 111.949 189.12 111.531C189.828 111.208 190.529 110.869 191.219 110.507C191.793 110.205 192.36 109.889 192.915 109.553C193.366 109.279 193.811 108.992 194.242 108.687C194.532 108.485 194.814 108.275 195.091 108.054C195.349 107.849 195.601 107.635 195.844 107.412C196.028 107.244 196.206 107.071 196.377 106.892C197.249 105.982 198.012 104.853 198.125 103.567C198.141 103.369 198.143 103.172 198.128 102.975C198.107 102.673 198.051 102.375 197.965 102.086C197.824 101.618 197.608 101.174 197.352 100.76C196.925 100.072 196.384 99.4572 195.802 98.8962C194.746 97.877 193.541 97.0144 192.298 96.2349C191.211 95.5516 190.086 94.932 188.94 94.3498C187.905 93.8247 186.854 93.329 185.79 92.8658C184.268 92.2054 182.713 91.6118 181.124 91.1308C179.63 90.679 178.101 90.3235 176.55 90.1393C176.018 90.0757 175.485 90.0365 174.951 90.0153C174.699 90.0088 174.449 90.0056 174.199 90.0056C173.803 90.0137 173.407 90.03 173.013 90.0675C172.16 90.1458 171.313 90.3056 170.497 90.5649C169.765 90.7965 169.059 91.1079 168.4 91.5009C167.981 91.7504 167.581 92.0325 167.205 92.3424C165.191 93.9992 163.937 96.3833 163.155 98.831C163.031 99.2191 162.918 99.6105 162.815 100.005C162.694 100.475 162.586 100.946 162.49 101.421C162.364 102.039 162.261 102.662 162.174 103.286C162.058 104.124 161.973 104.967 161.913 105.81C161.836 106.918 161.803 108.027 161.805 109.137C161.806 110.665 161.875 112.193 161.999 113.718C162.04 114.23 162.088 114.742 162.142 115.252C162.153 115.283 162.164 115.313 162.174 115.344C162.601 116.526 162.928 117.738 163.172 118.969Z" fill="#331618"/>
</g>
</g>
<defs>
<clipPath id="clip0_6_58">
<rect width="112.981" height="146.25" fill="white" transform="translate(105.421 88.3754)"/>
</clipPath>
<clipPath id="clip1_6_58">
<rect width="112.981" height="146.25" fill="white" transform="translate(105.421 88.3754)"/>
</clipPath>
</defs>
</svg>
