<svg width="16" height="24" viewBox="0 0 16 24" fill="none" xmlns="http://www.w3.org/2000/svg">
<g clip-path="url(#clip0_528_662)">
<path d="M6 19C6 20.1 6.9 21 8 21C9.1 21 10 20.1 10 19C10 17.9 9.1 17 8 17C6.9 17 6 17.9 6 19ZM6 5C6 6.1 6.9 7 8 7C9.1 7 10 6.1 10 5C10 3.9 9.1 3 8 3C6.9 3 6 3.9 6 5ZM6 12C6 13.1 6.9 14 8 14C9.1 14 10 13.1 10 12C10 10.9 9.1 10 8 10C6.9 10 6 10.9 6 12Z" stroke="#331618" stroke-width="1.5"/>
</g>
<defs>
<clipPath id="clip0_528_662">
<rect width="24" height="16" fill="white" transform="matrix(0 -1 1 0 0 24)"/>
</clipPath>
</defs>
</svg>
