<svg width="70" height="70" viewBox="0 0 70 70" fill="none" xmlns="http://www.w3.org/2000/svg">
<path d="M0 20C0 8.9543 8.95431 0 20 0H50C61.0457 0 70 8.95431 70 20V50C70 61.0457 61.0457 70 50 70H20C8.9543 70 0 61.0457 0 50V20Z" fill="#FDC7C7"/>
<path d="M18 42.263H51.2722V49.1132H18V42.263ZM18 42.263H51.2722V31.2433C51.2722 31.2366 51.2667 31.2312 51.26 31.2312H18.0122C18.0055 31.2312 18 31.2366 18 31.2433V42.263ZM41.8471 20C43.8619 20 45.4953 21.6293 45.4953 23.6391L45.4828 23.3543L45.5579 23.3341C48.7554 24.4148 51.0885 27.3345 51.2618 30.8147L51.2705 31.2072L51.2722 31.219C51.2722 31.2257 51.2667 31.2312 51.26 31.2312H18.0824C18.0757 31.2312 18.0702 31.2257 18.0702 31.219C18.0702 31.2136 18.0738 31.2088 18.0789 31.2073L33.7605 26.4626L38.5331 25.1631C38.3185 24.6995 38.1988 24.1833 38.1988 23.6391C38.1988 21.6293 39.8322 20 41.8471 20ZM41.8471 27.2783C43.8619 27.2783 45.4953 25.649 45.4953 23.6391C45.4953 21.6293 43.8619 20 41.8471 20C39.8322 20 38.1988 21.6293 38.1988 23.6391C38.1988 25.649 39.8322 27.2783 41.8471 27.2783Z" stroke="#331618" stroke-width="1.55963" stroke-linejoin="round"/>
</svg>
