<svg width="30" height="30" viewBox="0 0 30 30" fill="none" xmlns="http://www.w3.org/2000/svg">
<g clip-path="url(#clip0_154_248)">
<path d="M17.3591 3.42265L19.7591 8.22265C20.0864 8.89083 20.9591 9.53174 21.6955 9.65446L26.0455 10.3772C28.8273 10.8408 29.4818 12.859 27.4773 14.8499L24.0955 18.2317C23.5227 18.8045 23.2091 19.909 23.3864 20.6999L24.3546 24.8863C25.1182 28.1999 23.3591 29.4817 20.4273 27.7499L16.35 25.3363C15.6137 24.8999 14.4 24.8999 13.65 25.3363L9.57275 27.7499C6.65457 29.4817 4.88184 28.1863 5.64548 24.8863L6.61366 20.6999C6.79093 19.909 6.47729 18.8045 5.90457 18.2317L2.52275 14.8499C0.531838 12.859 1.17275 10.8408 3.95457 10.3772L8.30457 9.65446C9.02729 9.53174 9.90002 8.89083 10.2273 8.22265L12.6273 3.42265C13.9364 0.818102 16.0637 0.818102 17.3591 3.42265Z" fill="#331618" stroke="#331618" stroke-width="1.5" stroke-linecap="round" stroke-linejoin="round"/>
</g>
<defs>
<clipPath id="clip0_154_248">
<rect width="30" height="30" fill="white"/>
</clipPath>
</defs>
</svg>
